<?xml version="1.0" standalone="no"?>
<!DOCTYPE svg PUBLIC "-//W3C//DTD SVG 20010904//EN"
 "http://www.w3.org/TR/2001/REC-SVG-20010904/DTD/svg10.dtd">
<svg version="1.0" xmlns="http://www.w3.org/2000/svg"
 width="300.000000pt" height="144.000000pt" viewBox="0 0 300.000000 144.000000"
 preserveAspectRatio="xMidYMid meet">
<metadata>
Created by potrace 1.15, written by Peter Selinger 2001-2017
</metadata>
<g transform="translate(0.000000,144.000000) scale(0.100000,-0.100000)"
fill="#000000" stroke="none">
<path d="M1935 1179 c-20 -25 -25 -40 -23 -72 2 -24 9 -42 17 -45 10 -3 12 0
8 11 -9 25 20 49 43 37 30 -16 40 -43 40 -107 0 -73 -23 -161 -98 -372 l-59
-164 -43 154 c-23 85 -62 223 -85 308 -48 171 -47 194 4 206 70 15 23 25 -119
25 -93 0 -150 -4 -150 -10 0 -5 18 -10 40 -10 36 0 40 -3 48 -32 51 -184 246
-845 251 -850 4 -4 53 126 110 290 141 401 165 454 206 438 17 -6 20 -37 4
-53 -8 -8 -1 -14 24 -22 20 -7 39 -22 46 -37 14 -31 15 -501 1 -539 -6 -17
-20 -27 -40 -31 -65 -13 -24 -24 90 -24 73 0 120 4 120 10 0 6 -16 10 -34 10
l-35 0 -3 317 c-3 297 -4 320 -23 352 -11 19 -25 36 -32 38 -6 2 -28 -11 -50
-29 -21 -18 -32 -25 -25 -16 7 9 12 34 10 55 -3 35 -6 38 -35 41 -30 3 -33 6
-33 38 0 42 -23 89 -49 104 -11 5 -38 10 -59 10 -33 0 -45 -6 -67 -31z"/>
<path d="M141 1158 c-19 -13 -48 -30 -65 -39 l-31 -17 37 -15 c54 -23 58 -47
58 -395 0 -344 -3 -362 -64 -382 -20 -6 -36 -16 -36 -21 0 -15 356 -11 435 6
171 36 318 154 386 311 32 75 34 85 34 194 0 104 -3 121 -27 172 -76 163 -270
244 -430 180 -63 -26 -131 -105 -169 -197 l-17 -40 -6 70 c-9 93 -22 139 -49
170 l-22 25 -34 -22z m474 -122 c64 -29 116 -88 146 -162 29 -75 32 -233 5
-304 -62 -166 -200 -255 -413 -267 l-103 -6 0 265 c0 319 5 344 83 422 29 29
68 57 87 63 61 19 140 15 195 -11z"/>
<path d="M2452 1064 c-29 -14 -52 -30 -52 -36 0 -6 14 -26 30 -45 34 -38 36
-52 15 -93 -13 -24 -13 -30 -2 -30 46 0 104 131 90 203 -7 33 -16 34 -81 1z"/>
<path d="M2626 1001 c-17 -7 -17 -8 -3 -14 19 -7 13 -37 -21 -104 -77 -151
-32 -271 133 -352 122 -60 161 -147 96 -212 -80 -79 -210 14 -228 162 -11 93
-23 49 -23 -86 0 -83 4 -135 10 -135 6 0 10 7 10 15 0 24 22 27 69 10 99 -34
212 -7 258 64 28 41 31 117 6 168 -21 45 -97 94 -192 123 -136 43 -180 113
-128 204 34 60 69 81 134 81 48 0 58 -4 79 -28 36 -43 32 -88 -12 -132 -20
-20 -34 -39 -30 -42 11 -11 112 55 134 88 33 48 28 124 -10 152 -35 26 -112
33 -165 14 -40 -14 -41 -13 -52 9 -11 24 -30 29 -65 15z"/>
<path d="M1113 960 c-133 -53 -201 -185 -191 -373 10 -201 142 -330 320 -314
108 10 183 76 223 198 25 74 15 93 -18 36 -84 -144 -264 -164 -394 -44 -83 76
-121 195 -94 295 l12 42 171 0 c195 0 225 9 266 80 12 22 27 40 33 40 6 0 7 5
4 10 -4 6 -10 8 -15 5 -5 -3 -29 4 -52 16 -62 33 -194 37 -265 9z m174 -51
c36 -22 53 -63 34 -82 -8 -8 -68 -13 -178 -15 l-167 -3 26 33 c66 87 201 119
285 67z"/>
</g>
</svg>
